<?xml version="1.0" encoding="UTF-8"?>
<svg xmlns="http://www.w3.org/2000/svg" version="1.1" viewBox="0 0 544.4 120.6">
  <defs>
    <style>
      .cls-1 {
        fill: #00883a;
      }
    </style>
  </defs>
  <!-- Generator: Adobe Illustrator 28.6.0, SVG Export Plug-In . SVG Version: 1.2.0 Build 709)  -->
  <g>
    <g id="Calque_1">
      <g id="Baseline">
        <g id="f">
          <path d="M302.2,21.8h4.7c5.8,0,8.9,3.4,8.9,9.4s-3.1,9.5-8.8,9.5h-4.8v-18.9h0ZM306.7,38.7c4.4,0,6.6-2.8,6.6-7.5s-2.2-7.4-6.6-7.4h-2.1v14.9h2.1Z"/>
          <path d="M320.2,22.2c0-.9.7-1.6,1.6-1.6s1.6.6,1.6,1.6-.7,1.6-1.6,1.6-1.6-.6-1.6-1.6ZM320.5,26.7h2.4v14h-2.4v-14Z"/>
          <path d="M327.2,43.4c0-1.2.8-2.3,2-3.2h0c-.7-.5-1.2-1.3-1.2-2.4s.8-2.1,1.5-2.6h0c-.9-.9-1.8-2.2-1.8-3.9,0-3,2.4-5,5.3-5s1.5.1,2,.4h4.9v1.8h-2.9c.7.6,1.1,1.7,1.1,2.9,0,3-2.3,4.9-5.1,4.9s-1.4-.2-2.1-.5c-.5.4-.9.9-.9,1.7s.6,1.5,2.5,1.5h2.7c3.3,0,4.9,1,4.9,3.3s-2.7,4.9-7.1,4.9-5.8-1.3-5.8-3.8h0ZM337.7,42.6c0-1.3-1-1.7-2.8-1.7h-2.4c-.5,0-1.2,0-1.8-.2-1,.7-1.4,1.6-1.4,2.4,0,1.5,1.5,2.4,4.1,2.4s4.4-1.4,4.4-2.8h0ZM336,31.3c0-2-1.3-3.3-3-3.3s-3,1.2-3,3.3,1.4,3.3,3,3.3,3-1.3,3-3.3Z"/>
          <path d="M343.3,22.2c0-.9.7-1.6,1.6-1.6s1.6.6,1.6,1.6-.7,1.6-1.6,1.6-1.6-.6-1.6-1.6ZM343.7,26.7h2.4v14h-2.4v-14Z"/>
          <path d="M352,36.3v-7.7h-2.1v-1.8h2.2c0-.1.3-4.6.3-4.6h2v4.5h3.8v1.9h-3.8v7.8c0,1.7.6,2.7,2.2,2.7s1,0,1.6-.3l.5,1.7c-.8.3-1.7.6-2.6.6-3,0-4-1.9-4-4.7h0Z"/>
          <path d="M361.6,37c0-3.1,2.6-4.6,8.6-5.3,0-1.8-.6-3.5-2.9-3.5s-3.1.7-4.2,1.4l-.9-1.6c1.3-.9,3.2-1.8,5.5-1.8,3.4,0,4.9,2.3,4.9,5.7v8.6h-2l-.2-1.7h0c-1.3,1.1-2.9,2-4.6,2s-4.1-1.4-4.1-4h0ZM370.2,37.3v-3.8c-4.7.5-6.2,1.6-6.2,3.4s1.1,2.2,2.4,2.2,2.5-.6,3.8-1.8Z"/>
          <path d="M377.8,37.9v-17.7h2.4v17.9c0,.8.3,1,.7,1s.3,0,.5,0l.3,1.8c-.4.2-.8.3-1.4.3-1.8,0-2.5-1.2-2.5-3.2Z"/>
          <path d="M393.5,21.8h2.4v7.9h8.8v-7.9h2.4v18.9h-2.4v-8.9h-8.8v8.9h-2.4v-18.9Z"/>
          <path d="M411.8,37c0-3.1,2.6-4.6,8.6-5.3,0-1.8-.6-3.5-2.9-3.5s-3.1.7-4.2,1.4l-.9-1.6c1.3-.9,3.2-1.8,5.5-1.8,3.4,0,4.9,2.3,4.9,5.7v8.6h-2l-.2-1.7h0c-1.3,1.1-2.9,2-4.6,2s-4.1-1.4-4.1-4h0ZM420.4,37.3v-3.8c-4.7.5-6.2,1.6-6.2,3.4s1.1,2.2,2.4,2.2,2.5-.6,3.8-1.8Z"/>
          <path d="M428,26.7h2l.2,2h0c1.3-1.3,2.8-2.4,4.7-2.4,3,0,4.3,1.9,4.3,5.5v8.9h-2.4v-8.6c0-2.6-.8-3.7-2.6-3.7s-2.4.7-3.8,2.1v10.1h-2.4v-14h0Z"/>
          <path d="M443.7,33.7c0-4.5,2.9-7.4,6.1-7.4s2.7.6,3.9,1.6v-2.4c-.1,0-.1-5.4-.1-5.4h2.4v20.5h-2l-.2-1.6h0c-1.1,1.1-2.6,2-4.2,2-3.5,0-5.8-2.7-5.8-7.3h0ZM453.6,37.1v-7.3c-1.2-1.1-2.2-1.4-3.4-1.4-2.2,0-4,2.1-4,5.3s1.4,5.3,3.8,5.3,2.4-.6,3.6-1.9Z"/>
          <path d="M463.6,39.2h0l-.2,1.4h-1.9v-20.5h2.4v8.1c1.2-1.1,2.8-1.9,4.3-1.9,3.6,0,5.6,2.8,5.6,7.1s-2.9,7.6-6.1,7.6-2.7-.7-4-1.8h0ZM471.1,33.5c0-3.1-1.1-5.1-3.7-5.1s-2.4.6-3.7,1.9v7.3c1.2,1.1,2.5,1.4,3.4,1.4,2.3,0,4-2.1,4-5.5h0Z"/>
          <path d="M477.3,33.7c0-4.7,3-7.4,6.5-7.4s6.5,2.7,6.5,7.4-3.1,7.3-6.5,7.3-6.5-2.7-6.5-7.3ZM487.9,33.7c0-3.2-1.6-5.4-4-5.4s-4,2.2-4,5.4,1.6,5.3,4,5.3,4-2.1,4-5.3Z"/>
          <path d="M494,33.7c0-4.7,3-7.4,6.5-7.4s6.5,2.7,6.5,7.4-3.1,7.3-6.5,7.3-6.5-2.7-6.5-7.3ZM504.5,33.7c0-3.2-1.6-5.4-4-5.4s-4,2.2-4,5.4,1.6,5.3,4,5.3,4-2.1,4-5.3Z"/>
          <path d="M511.5,20.2h2.4v13.8h0l5.9-7.3h2.7l-4.7,5.7,5.3,8.3h-2.6l-4.1-6.7-2.6,3v3.7h-2.4v-20.5h0Z"/>
          <path d="M300.9,63.7c0-4.7,3-7.4,6.5-7.4s6.5,2.7,6.5,7.4-3.1,7.3-6.5,7.3-6.5-2.7-6.5-7.3ZM311.4,63.7c0-3.2-1.6-5.4-4-5.4s-4,2.2-4,5.4,1.6,5.3,4,5.3,4-2.1,4-5.3Z"/>
          <path d="M318.4,58.6h-1.9v-1.8h1.9v-2.3c0-2.8,1.3-4.7,4.1-4.7s1.8.2,2.3.5l-.5,1.8c-.5-.2-1.1-.3-1.5-.3-1.3,0-2,1-2,2.7v2.2h2.9v1.9h-2.9v12.1h-2.4s0-12.1,0-12.1Z"/>
          <path d="M332.5,68l1.6-1.1c.8,1.4,1.9,2,3.2,2,2.1,0,3.1-1.2,3.1-4.1v-13h2.4v13.3c0,3.3-1.6,6-5.4,6s-4-1-5-3.1h0Z"/>
          <path d="M347.3,63.7c0-4.5,3.1-7.3,6.3-7.3s5.6,2.5,5.6,6.6,0,1-.1,1.4h-9.4c.2,2.9,2,4.8,4.6,4.8s2.5-.4,3.5-1l.8,1.5c-1.2.9-2.7,1.4-4.6,1.4-3.8,0-6.7-2.7-6.7-7.3h0ZM357.1,62.5c0-2.8-1.3-4.2-3.4-4.2s-3.7,1.6-4,4.2h7.4Z"/>
          <path d="M361.6,56.7h2.5l2,8.1c.3,1.3.6,2.5.8,4h.1c.3-1.5.5-2.7.9-4l2.1-8.1h2.6l2.1,8.1c.3,1.3.6,2.5.9,4h.1c.3-1.5.5-2.7.8-4l2-8.1h2.3l-3.8,14h-3l-1.9-7.5c-.4-1.3-.6-2.5-.9-4.2h-.1c-.3,1.6-.5,2.9-.9,4.2l-1.9,7.5h-2.9l-3.9-14h0Z"/>
          <path d="M384.1,52.2c0-.9.7-1.6,1.6-1.6s1.6.6,1.6,1.6-.7,1.6-1.6,1.6-1.6-.6-1.6-1.6ZM384.5,56.7h2.4v14h-2.4v-14Z"/>
          <path d="M390.6,69l1.1-1.4c1.2,1,2.5,1.5,4.2,1.5s2.7-.9,2.7-2.2-1.5-2.1-3.1-2.6c-2.1-.8-4.1-1.8-4.1-4.1s1.8-4,4.8-4,3.3.7,4.4,1.6l-1.1,1.4c-1-.7-2-1.1-3.2-1.1-1.8,0-2.6,1-2.6,2s1.2,1.8,3,2.4c2.2.8,4.3,1.7,4.3,4.3s-1.8,4.2-5.1,4.2-3.9-.8-5.2-2h0Z"/>
          <path d="M404.8,50.2h2.4v8.5c1.2-1.3,2.6-2.3,4.6-2.3,3,0,4.3,1.9,4.3,5.5v8.9h-2.4v-8.6c0-2.6-.8-3.7-2.6-3.7s-2.4.7-3.8,2.1v10.1h-2.4v-20.5h0Z"/>
          <path d="M432.2,51.8h2.8l6.4,18.9h-2.6l-1.8-5.7h-6.9l-1.8,5.7h-2.5l6.4-18.9h0ZM430.7,63h5.6l-.9-2.8c-.7-2.1-1.3-4.2-1.9-6.4h-.1c-.6,2.2-1.2,4.3-1.8,6.4l-.9,2.8h0Z"/>
          <path d="M444.2,65.6v-8.9h2.4v8.6c0,2.6.8,3.7,2.6,3.7s2.4-.7,3.7-2.4v-9.9h2.4v14h-2l-.2-2.2h0c-1.3,1.5-2.7,2.5-4.6,2.5-3,0-4.3-1.9-4.3-5.5h0Z"/>
          <path d="M461.1,66.3v-7.7h-2.1v-1.8h2.2c0-.1.3-4.6.3-4.6h2v4.5h3.8v1.9h-3.8v7.8c0,1.7.6,2.7,2.2,2.7s1,0,1.6-.3l.5,1.7c-.8.3-1.7.6-2.6.6-3,0-4-1.9-4-4.7h0Z"/>
          <path d="M471.1,50.2h2.4v8.5c1.2-1.3,2.6-2.3,4.6-2.3,3,0,4.3,1.9,4.3,5.5v8.9h-2.4v-8.6c0-2.6-.8-3.7-2.6-3.7s-2.4.7-3.8,2.1v10.1h-2.4v-20.5h0Z"/>
          <path d="M486.5,63.7c0-4.7,3-7.4,6.5-7.4s6.5,2.7,6.5,7.4-3.1,7.3-6.5,7.3-6.5-2.7-6.5-7.3ZM497,63.7c0-3.2-1.6-5.4-4-5.4s-4,2.2-4,5.4,1.6,5.3,4,5.3,4-2.1,4-5.3Z"/>
          <path d="M503.8,56.7h2l.2,2.5h0c1-1.8,2.4-2.9,4-2.9s1.1,0,1.5.3l-.5,2c-.4-.1-.7-.2-1.3-.2-1.2,0-2.6.8-3.5,3.2v9h-2.4v-14h0Z"/>
          <path d="M513.2,69l1.1-1.4c1.2,1,2.5,1.5,4.2,1.5s2.7-.9,2.7-2.2-1.6-2.1-3.1-2.6c-2.1-.8-4.1-1.8-4.1-4.1s1.8-4,4.8-4,3.3.7,4.3,1.6l-1.1,1.4c-1-.7-2-1.1-3.2-1.1-1.8,0-2.6,1-2.6,2s1.2,1.8,3,2.4c2.2.8,4.3,1.7,4.3,4.3s-1.8,4.2-5.1,4.2-3.9-.8-5.2-2h0Z"/>
          <path d="M300.2,81.8h2.5l2,10.3c.4,2.1.7,4.1,1,6.2h.1c.4-2.1.8-4.2,1.3-6.2l2.6-10.3h2.4l2.6,10.3c.5,2,1,4.1,1.4,6.2h.1c.3-2.1.7-4.2,1-6.2l2-10.3h2.3l-4,18.9h-3l-2.8-11.4c-.4-1.5-.6-2.8-.8-4.4h-.1c-.3,1.6-.6,2.9-.9,4.4l-2.7,11.4h-3l-4-18.9h0Z"/>
          <path d="M324.8,86.7h2l.2,2.5h0c1-1.8,2.4-2.9,4-2.9s1.1,0,1.5.3l-.5,2.1c-.4-.1-.7-.2-1.3-.2-1.2,0-2.6.8-3.5,3.2v9h-2.4v-14h0Z"/>
          <path d="M335.3,82.2c0-.9.7-1.6,1.6-1.6s1.6.6,1.6,1.6-.7,1.6-1.6,1.6-1.6-.6-1.6-1.6ZM335.7,86.7h2.4v14h-2.4v-14Z"/>
          <path d="M343.8,96.3v-7.7h-2.1v-1.8h2.2c0-.1.3-4.6.3-4.6h2v4.5h3.8v1.9h-3.8v7.8c0,1.7.6,2.7,2.2,2.7s1,0,1.6-.3l.5,1.7c-.8.3-1.7.6-2.6.6-3,0-4-1.9-4-4.7h0Z"/>
          <path d="M353.5,82.2c0-.9.7-1.6,1.6-1.6s1.6.6,1.6,1.6-.7,1.6-1.6,1.6-1.6-.6-1.6-1.6ZM353.8,86.7h2.4v14h-2.4v-14Z"/>
          <path d="M361.3,86.7h2l.2,2h0c1.3-1.3,2.8-2.4,4.7-2.4,3,0,4.3,1.9,4.3,5.5v8.9h-2.4v-8.6c0-2.6-.8-3.7-2.6-3.7s-2.4.7-3.8,2.1v10.1h-2.4v-14h0Z"/>
          <path d="M376.5,103.4c0-1.2.8-2.3,2-3.2h0c-.7-.6-1.2-1.3-1.2-2.4s.8-2.1,1.5-2.6h0c-.9-.9-1.8-2.2-1.8-3.9,0-3.1,2.4-5,5.3-5s1.5.1,2,.3h4.9v1.8h-2.9c.7.6,1.1,1.7,1.1,2.8,0,3-2.3,4.9-5.1,4.9s-1.4-.2-2.1-.5c-.5.4-.9.9-.9,1.7s.6,1.5,2.5,1.5h2.7c3.3,0,4.9,1,4.9,3.3s-2.7,4.9-7.1,4.9-5.8-1.3-5.8-3.8h0ZM387,102.6c0-1.3-1-1.7-2.8-1.7h-2.4c-.5,0-1.2,0-1.8-.2-1,.7-1.4,1.6-1.4,2.4,0,1.5,1.5,2.4,4.1,2.4s4.4-1.4,4.4-2.8h0ZM385.2,91.3c0-2-1.3-3.3-3-3.3s-3,1.2-3,3.3,1.4,3.3,3,3.3,3-1.3,3-3.3Z"/>
          <path d="M399.3,82.2c0-.9.7-1.6,1.6-1.6s1.6.6,1.6,1.6-.7,1.6-1.6,1.6-1.6-.6-1.6-1.6ZM399.7,86.7h2.4v14h-2.4v-14Z"/>
          <path d="M407.2,86.7h2l.2,2h0c1.3-1.3,2.8-2.4,4.7-2.4,3,0,4.3,1.9,4.3,5.5v8.9h-2.4v-8.6c0-2.6-.8-3.7-2.6-3.7s-2.4.7-3.8,2.1v10.1h-2.4v-14h0Z"/>
          <path d="M434.7,81.8h2.8l6.4,18.9h-2.6l-1.8-5.7h-6.9l-1.8,5.7h-2.5l6.4-18.9h0ZM433.2,93h5.6l-.9-2.8c-.7-2.1-1.3-4.2-1.9-6.4h-.1c-.6,2.2-1.2,4.3-1.8,6.4l-.9,2.8h0Z"/>
          <path d="M447.2,86.7h2l.2,2.5h0c1-1.8,2.4-2.9,4-2.9s1.1,0,1.5.3l-.5,2.1c-.4-.1-.7-.2-1.3-.2-1.2,0-2.6.8-3.5,3.2v9h-2.4v-14h0Z"/>
          <path d="M457.2,97.1c0-3.1,2.6-4.6,8.6-5.3,0-1.8-.6-3.5-2.9-3.5s-3.1.7-4.2,1.4l-.9-1.6c1.3-.9,3.2-1.8,5.5-1.8,3.4,0,4.9,2.3,4.9,5.7v8.6h-2l-.2-1.7h0c-1.3,1.1-2.9,2-4.6,2s-4.1-1.4-4.1-4h0ZM465.8,97.3v-3.8c-4.7.6-6.2,1.6-6.2,3.4s1.1,2.2,2.4,2.2,2.5-.6,3.8-1.8Z"/>
          <path d="M475.4,99.2h0l-.2,1.4h-1.9v-20.5h2.4v8.1c1.2-1.1,2.8-1.9,4.3-1.9,3.6,0,5.6,2.8,5.6,7.1s-2.9,7.6-6.1,7.6-2.7-.7-4-1.8h0ZM483,93.5c0-3.1-1.1-5.1-3.7-5.1s-2.4.6-3.7,1.9v7.3c1.2,1.1,2.5,1.4,3.4,1.4,2.3,0,4-2.1,4-5.5h0Z"/>
          <path d="M489.4,82.2c0-.9.7-1.6,1.6-1.6s1.6.6,1.6,1.6-.7,1.6-1.6,1.6-1.6-.6-1.6-1.6ZM489.7,86.7h2.4v14h-2.4v-14Z"/>
          <path d="M496.3,93.7c0-4.7,3.1-7.4,6.7-7.4s3.1.7,4.1,1.6l-1.2,1.5c-.8-.7-1.7-1.2-2.8-1.2-2.5,0-4.4,2.2-4.4,5.4s1.7,5.3,4.3,5.3,2.5-.6,3.3-1.3l1,1.5c-1.3,1.2-2.9,1.8-4.5,1.8-3.7,0-6.6-2.7-6.6-7.3h0Z"/>
        </g>
      </g>
      <g id="JALit">
        <rect class="cls-1" x="222.4" y="19.9" width="16.4" height="16.1"/>
        <polygon class="cls-1" points="222.2 36 222.3 100.3 238.7 100.3 238.6 48.7 222.2 36"/>
        <path class="cls-1" d="M176,73.3V20.1h-16v53.2c0,14.8,12,26.8,26.8,26.8h25.3v-16h-25.3c-5.9,0-10.8-4.8-10.8-10.8Z"/>
        <path class="cls-1" d="M265,73.3v-21.1h11.8s0-15.8,0-15.8h-11.7v-16.3h-16v53.2c0,16,11.2,26.8,27.8,26.8v-16c-7.8,0-11.8-3.6-11.8-10.8h0Z"/>
        <path class="cls-1" d="M56.6,73.6c0,5.9-4.8,10.8-10.8,10.8h-25.3v16h25.3c14.8,0,26.8-12,26.8-26.8V20.1h-16s0,53.4,0,53.4Z"/>
        <path class="cls-1" d="M93.1,100.1l18-60.6c.7-2.3,2.7-4,4.8-4.2.3,0,.5,0,.8,0,2.1.1,4.1,1.8,4.8,4.2l17.9,60.6h16.7l-19.2-65.1c-2.6-8.7-10.2-15-19-15.6-1,0-2,0-3,0-8.8.6-16.4,6.9-19,15.6l-19.4,65.1h16.7Z"/>
      </g>
    </g>
  </g>
</svg>