<?xml version="1.0" encoding="UTF-8" standalone="no"?>
<svg
   version="1.1"
   viewBox="0 0 256.39998 81.000001"
   id="svg936"
   sodipodi:docname="logo-JALit.svg"
   width="256.39999"
   height="81"
   inkscape:version="1.1.1 (c3084ef, 2021-09-22)"
   xmlns:inkscape="http://www.inkscape.org/namespaces/inkscape"
   xmlns:sodipodi="http://sodipodi.sourceforge.net/DTD/sodipodi-0.dtd"
   xmlns="http://www.w3.org/2000/svg"
   xmlns:svg="http://www.w3.org/2000/svg">
  <sodipodi:namedview
     id="namedview938"
     pagecolor="#ffffff"
     bordercolor="#666666"
     borderopacity="1.0"
     inkscape:pageshadow="2"
     inkscape:pageopacity="0.0"
     inkscape:pagecheckerboard="0"
     showgrid="false"
     inkscape:zoom="2.229978"
     inkscape:cx="201.5715"
     inkscape:cy="54.484843"
     inkscape:window-width="1470"
     inkscape:window-height="891"
     inkscape:window-x="0"
     inkscape:window-y="37"
     inkscape:window-maximized="1"
     inkscape:current-layer="Calque_1" />
  <defs
     id="defs826">
    <style
       id="style824">
      .cls-1 {
        fill: #00883a;
      }
    </style>
  </defs>
  <!-- Generator: Adobe Illustrator 28.6.0, SVG Export Plug-In . SVG Version: 1.2.0 Build 709)  -->
  <g
     id="Calque_1"
     transform="translate(-20.5,-19.4)">
    <g
       id="JALit">
      <rect
         class="cls-1"
         x="222.39999"
         y="19.9"
         width="16.4"
         height="16.1"
         id="rect920" />
      <polygon
         class="cls-1"
         points="222.2,36 222.3,100.3 238.7,100.3 238.6,48.7 "
         id="polygon922" />
      <path
         class="cls-1"
         d="M 176,73.3 V 20.1 h -16 v 53.2 c 0,14.8 12,26.8 26.8,26.8 h 25.3 v -16 H 186.8 C 180.9,84.1 176,79.3 176,73.3 Z"
         id="path924" />
      <path
         class="cls-1"
         d="M 265,73.3 V 52.2 h 11.8 c 0,0 0,-15.8 0,-15.8 H 265.1 V 20.1 h -16 v 53.2 c 0,16 11.2,26.8 27.8,26.8 v -16 c -7.8,0 -11.8,-3.6 -11.8,-10.8 v 0 z"
         id="path926" />
      <path
         class="cls-1"
         d="m 56.6,73.6 c 0,5.9 -4.8,10.8 -10.8,10.8 H 20.5 v 16 h 25.3 c 14.8,0 26.8,-12 26.8,-26.8 V 20.1 h -16 c 0,0 0,53.4 0,53.4 z"
         id="path928" />
      <path
         class="cls-1"
         d="m 93.1,100.1 18,-60.6 c 0.7,-2.3 2.7,-4 4.8,-4.2 0.3,0 0.5,0 0.8,0 2.1,0.1 4.1,1.8 4.8,4.2 l 17.9,60.6 h 16.7 L 136.9,35 c -2.6,-8.7 -10.2,-15 -19,-15.6 -1,0 -2,0 -3,0 -8.8,0.6 -16.4,6.9 -19,15.6 l -19.4,65.1 h 16.7 z"
         id="path930" />
    </g>
  </g>
</svg>
